# xmcd
#
# Track frame offsets: 
#        150
#        22875
#        44540
#        74831
#        100288
#        120900
#        157071
#        170707
#        194188
#        207918
#        231446
#        253905
#        285339
#        313945
#
# Disc length: 4611 seconds
#
# Revision: 0
# Processed by: cddbd v1.5.2PL0 Copyright (c) Steve Scherf et al.
# Submitted via: ExactAudioCopy v0.99pb4
#
DISCID=da12010e
DTITLE=Cee Cee James - Seriously Raw, Cee Cee James Live At Sunbanks
DYEAR=2010
DGENRE=
TTITLE0=Crossroad Blues
TTITLE1=I Ain't Superstitious
TTITLE2=Make It To The Other Side
TTITLE3=I Got A Right To Sing The Blues
TTITLE4=Give Me Back My Wig
TTITLE5=Done Love Wrong
TTITLE6=Mercedes Benz
TTITLE7=Me And Bobby McGee
TTITLE8=I Just Want To Make Love To You
TTITLE9=Rock Me Baby
TTITLE10=Nutbush City Limits
TTITLE11=Living In The House of The Blues
TTITLE12=Going Down
TTITLE13=Untitled
EXTD=
EXTT0=
EXTT1=
EXTT2=
EXTT3=
EXTT4=
EXTT5=
EXTT6=
EXTT7=
EXTT8=
EXTT9=
EXTT10=
EXTT11=
EXTT12=
EXTT13=
PLAYORDER=
